<?xml version="1.0" standalone="no"?>
<!DOCTYPE svg PUBLIC "-//W3C//DTD SVG 20010904//EN"
 "http://www.w3.org/TR/2001/REC-SVG-20010904/DTD/svg10.dtd">
<svg version="1.0" xmlns="http://www.w3.org/2000/svg"
 width="1080.000000pt" height="1080.000000pt" viewBox="0 0 1080.000000 1080.000000"
 preserveAspectRatio="xMidYMid meet">
<metadata>
Created by potrace 1.11, written by Peter Selinger 2001-2013
</metadata>
<g transform="translate(0.000000,1080.000000) scale(0.100000,-0.100000)"
fill="#000000" stroke="none">
<path d="M6005 8454 c-116 -30 -200 -100 -258 -216 -22 -44 -70 -188 -121
-363 -46 -159 -101 -346 -121 -415 -20 -69 -49 -170 -65 -225 -15 -55 -49
-172 -75 -260 -76 -262 -96 -329 -100 -345 -2 -8 -51 -177 -108 -375 -97 -331
-158 -541 -318 -1095 -93 -318 -165 -566 -194 -665 -15 -49 -28 -97 -30 -105
-2 -8 -17 -62 -35 -120 -17 -58 -33 -112 -35 -121 -2 -9 -8 -32 -14 -50 -50
-167 -277 -957 -288 -1006 -11 -44 -11 -192 0 -232 22 -83 100 -182 174 -219
81 -42 150 -55 262 -50 137 7 202 31 275 101 44 44 113 156 123 201 2 13 18
67 68 236 20 69 38 132 40 140 6 26 125 433 135 465 6 17 37 125 70 240 33
116 64 224 69 240 6 17 62 210 125 430 64 220 145 501 181 625 36 124 72 248
80 275 7 28 62 214 120 415 59 201 109 374 112 385 3 11 17 58 30 105 87 301
118 409 176 610 36 124 91 313 122 420 31 107 75 258 97 335 22 77 43 171 46
208 15 206 -92 369 -277 423 -71 20 -201 24 -266 8z"/>
<path d="M3225 7194 c-33 -7 -82 -20 -110 -29 -42 -14 -444 -178 -540 -220
-16 -7 -113 -48 -215 -90 -102 -41 -194 -80 -205 -85 -11 -5 -103 -43 -205
-85 -102 -42 -237 -98 -300 -125 -63 -26 -194 -81 -290 -120 -96 -40 -188 -78
-205 -86 -16 -7 -140 -58 -275 -114 -277 -115 -371 -163 -449 -229 -56 -48
-118 -131 -146 -197 -41 -96 -52 -270 -26 -384 29 -122 121 -252 232 -327 88
-59 148 -86 774 -340 88 -36 174 -71 190 -79 17 -7 68 -28 115 -47 107 -43
695 -284 735 -302 17 -7 82 -34 145 -59 63 -26 124 -51 135 -56 205 -92 560
-230 631 -245 61 -14 201 -14 252 0 247 65 369 364 247 605 -48 94 -140 173
-251 214 -27 10 -76 29 -109 41 -54 21 -205 77 -910 338 -126 47 -381 142
-565 210 -184 69 -381 142 -437 163 -79 29 -103 42 -103 56 0 10 2 18 3 18 4
0 184 64 347 123 923 334 1233 447 1275 463 22 9 126 47 230 84 299 108 321
117 370 145 104 61 178 172 192 289 4 34 7 68 7 76 -10 189 -108 330 -269 385
-62 21 -190 26 -270 9z"/>
<path d="M7340 7196 c-118 -25 -227 -114 -278 -226 -34 -75 -42 -212 -17 -296
47 -162 135 -235 395 -328 74 -27 149 -54 165 -61 17 -7 190 -72 385 -145 195
-72 396 -147 445 -166 50 -19 94 -34 98 -34 5 0 23 -7 40 -15 46 -21 864 -325
874 -325 2 0 3 -8 3 -18 0 -15 -58 -40 -312 -132 -172 -62 -362 -130 -423
-152 -60 -21 -117 -41 -125 -45 -8 -3 -19 -7 -25 -9 -5 -1 -127 -45 -270 -97
-143 -53 -393 -143 -555 -202 -162 -58 -337 -122 -387 -141 -224 -86 -328
-229 -322 -443 5 -183 107 -324 277 -382 78 -27 228 -20 336 16 70 23 217 80
271 105 11 5 202 84 425 176 223 91 423 174 445 183 22 10 56 24 75 31 19 7
53 21 75 31 22 9 103 43 180 74 77 31 154 63 170 71 17 7 55 23 85 34 30 12
69 28 85 35 17 8 80 34 140 58 236 96 533 219 585 244 137 65 248 165 303 272
43 83 58 144 62 246 7 187 -45 326 -163 436 -105 98 -140 116 -572 294 -58 24
-188 78 -290 120 -102 42 -210 87 -240 100 -148 60 -585 241 -665 275 -49 21
-180 75 -290 120 -110 45 -220 91 -245 102 -24 11 -76 33 -115 48 -38 15 -119
48 -180 72 -189 77 -325 100 -445 74z"/>
</g>
</svg>
